inDegrees=yes
name=ik_S41_A11_T02
DataType=double
version=3
OpenSimVersion=4.3-2021-08-27-4bc7ad9
endheader
time	pelvis_tilt	pelvis_list	pelvis_rotation	pelvis_tx	pelvis_ty	pelvis_tz	hip_flexion_r	hip_adduction_r	hip_rotation_r	knee_angle_r	knee_angle_r_beta	ankle_angle_r	subtalar_angle_r	mtp_angle_r	hip_flexion_l	hip_adduction_l	hip_rotation_l	knee_angle_l	knee_angle_l_beta	ankle_angle_l	subtalar_angle_l	mtp_angle_l	lumbar_extension	lumbar_bending	lumbar_rotation	arm_flex_r	arm_add_r	arm_rot_r	elbow_flex_r	pro_sup_r	wrist_flex_r	wrist_dev_r	arm_flex_l	arm_add_l	arm_rot_l	elbow_flex_l	pro_sup_l	wrist_flex_l	wrist_dev_l
10.85999999999986	1.435784350748343	-4.695310910678153	20.75521100696982	0	0.9399999999999999	0	40.6344614262724	-9.963981421348272	-9.834291962062203	48.19657732938044	0.8411889625897442	0	0	0	40.6344614262724	-9.963981421348272	-9.834291962062203	48.19657732938044	0.8411889625897442	0	0	0	0.9218550271506885	-4.626399767482306	8.564849625009442	126.5193194495501	-35.62198112778636	43.15526819194841	19.43382470025836	79.2742780179786	0	0	11.27678421383766	-6.786341453036163	-4.180907712857645	7.109365892393626	122.0351744410809	0	0
10.87999999999986	1.441463821139335	-4.740676633239544	20.90804184389065	0	0.9399999999999999	0	40.63563674549208	-9.964015151406576	-9.834391528082412	48.19781410581588	0.8412105484106537	0	0	0	40.63563674549208	-9.964015151406576	-9.834391528082412	48.19781410581588	0.8412105484106537	0	0	0	0.9087361307200039	-4.670368662047276	8.537580558448472	126.7794032100247	-34.91389590335137	43.43720722673044	19.30414070611805	79.55901263748184	0	0	11.25425836685671	-6.852496269204167	-4.187601441327036	7.111916533460381	122.0057516689124	0	0
10.89999999999986	1.447708101843908	-4.782898052385653	21.06514289904054	0	0.9399999999999999	0	40.63697474085882	-9.964053510005634	-9.834504810026973	48.1992226442604	0.8412351320441515	0	0	0	40.63697474085882	-9.964053510005634	-9.834504810026973	48.1992226442604	0.8412351320441515	0	0	0	0.8973665782546534	-4.711662145384508	8.513771866309881	127.0445618809522	-34.22761453331451	43.6609524447842	18.75094251845187	79.75974615366331	0	0	11.29244091119156	-6.916239005823259	-4.030908209879487	7.019879976213145	121.8722348699961	0	0
10.91999999999986	1.448520074024142	-4.800611034455387	21.17776599558898	0	0.9399999999999999	0	40.63856387308611	-9.964099116634197	-9.834639468526724	48.20089269369409	0.8412642799054404	0	0	0	40.63856387308611	-9.964099116634197	-9.834639468526724	48.20089269369409	0.8412642799054404	0	0	0	0.8868400190272813	-4.727680178501585	8.456372109035543	127.3115618497486	-33.50254144929576	43.83046751224486	17.96551961158834	79.81731168165825	0	0	11.27904785074571	-6.958960645156131	-4.117655264377546	6.960874101328629	121.8900459470323	0	0
10.93999999999986	1.459278488190143	-4.830960371479933	21.31775568508667	0	0.9399999999999999	0	40.6403047210673	-9.964149078049481	-9.834787006782399	48.20272079496453	0.8412961862916695	0	0	0	40.6403047210673	-9.964149078049481	-9.834787006782399	48.20272079496453	0.8412961862916695	0	0	0	0.8839914550450959	-4.759628512639471	8.435993922576873	127.5701211788927	-32.90480314977921	44.00692727031286	17.23622082858257	79.88036300599114	0	0	11.24114508650164	-7.040658568016504	-4.166904393490916	6.924006837957484	121.914593997151	0	0
10.95999999999986	1.45943708585923	-4.847081486453492	21.39485760673664	0	0.9399999999999999	0	40.64064517500413	-9.964158700790144	-9.834815573429864	48.20308329160765	0.8413025130516194	0	0	0	40.64064517500413	-9.964158700790144	-9.834815573429864	48.20308329160765	0.8413025130516194	0	0	0	0.8802417380670604	-4.775130804330339	8.461846852919933	127.6103819467958	-33.00455953180244	44.05139146873064	17.22953018837088	79.88444544662362	0	1.937781044032368e-35	11.18319333449931	-7.076721135339612	-4.24286023505412	6.898254808072786	121.9191503628081	0	1.937781044032368e-35
10.97999999999985	1.456902806588159	-4.870185679100743	21.5195976748784	0	0.9399999999999999	0	40.64216502718435	-9.964202264638699	-9.834944298074655	48.20467978445222	0.8413303771082417	0	0	0	40.64216502718435	-9.964202264638699	-9.834944298074655	48.20467978445222	0.8413303771082417	0	0	0	0.867905003263721	-4.795476268837886	8.446452091182049	127.828638264197	-32.46438504477548	44.1484083810868	16.63088494446851	79.98996237701239	0	0	11.15462080136935	-7.105572988496023	-4.310208192420959	6.84908063138515	121.9935396191525	0	0
10.99999999999985	1.456757452929614	-4.891155049111345	21.72731364755775	0	0.9399999999999999	0	40.64494792846241	-9.964281827865424	-9.835179654712338	48.20760666207129	0.8413814607594974	0	0	0	40.64494792846241	-9.964281827865424	-9.835179654712338	48.20760666207129	0.8413814607594974	0	0	0	0.8485977651096381	-4.81231629728864	8.325728985510104	127.7833750507619	-31.85860272001245	44.06594761862782	18.6666473356288	82.04085649154634	0	0	11.12302345981053	-7.149902084554957	-4.385236743627068	6.813268003329439	122.0569892497886	0	0
11.01999999999985	1.462715992965514	-4.921509525262953	21.83841031928101	0	0.9399999999999999	0	40.64631012854747	-9.964320726503832	-9.835294786881786	48.2090398009148	0.8414064737509549	0	0	0	40.64631012854747	-9.964320726503832	-9.835294786881786	48.2090398009148	0.8414064737509549	0	0	0	0.841515209638137	-4.842505626798996	8.312071333681315	127.8717554228906	-31.45448029616885	44.09674746753078	18.61352562429405	82.60698861625167	0	0	11.0752679006312	-7.21606514544275	-4.4241033154126	6.852583722033824	122.1341228702715	0	0
11.03999999999985	1.472538769048668	-4.933503959787803	21.92388930202458	0	0.9399999999999999	0	40.64745458035857	-9.964353323458795	-9.835391362256363	48.2102460831078	0.8414275273469309	0	0	0	40.64745458035857	-9.964353323458795	-9.835391362256363	48.2102460831078	0.8414275273469309	0	0	0	0.8432477902782012	-4.856718689308074	8.27776049360731	127.9030140218051	-31.00415025830831	44.16866247423041	18.53434357214801	83.13744497581432	0	0	10.99524953723872	-7.254872221799789	-4.505211887297572	6.781959791976833	122.1321853712467	0	0
